<svg width="168" height="74" viewBox="0 0 168 74" fill="none" xmlns="http://www.w3.org/2000/svg">
<path d="M21.9648 15.5078H23.2734L33.6445 41.9336C34.0612 43.0013 34.9141 43.5352 36.2031 43.5352H37.1016V45H25.5781V43.5352H26.4961C27.694 43.5352 28.5404 43.4049 29.0352 43.1445C29.3737 42.9622 29.543 42.6823 29.543 42.3047C29.543 42.0833 29.4974 41.849 29.4062 41.6016L27.0039 35.4688H15.5977L14.25 38.9844C13.8984 39.9219 13.7227 40.6641 13.7227 41.2109C13.7227 41.849 14.0156 42.3958 14.6016 42.8516C15.2005 43.3073 16.0664 43.5352 17.1992 43.5352H18.1758V45H7.70703V43.5352C8.82682 43.5352 9.71224 43.2943 10.3633 42.8125C11.0143 42.3177 11.6133 41.3867 12.1602 40.0195L21.9648 15.5078ZM21.3984 21.0742L16.2227 33.9453H26.4375L21.3984 21.0742ZM38.1562 16.1133H51.5352V17.5781H48.332C47.8242 17.5781 47.4466 17.7148 47.1992 17.9883C46.9648 18.2487 46.8477 18.6654 46.8477 19.2383V42.0312C46.8477 42.5781 46.9974 42.9688 47.2969 43.2031C47.6094 43.4245 48.2279 43.5352 49.1523 43.5352H53.2148C55.3763 43.5352 57.1406 42.819 58.5078 41.3867C59.888 39.9414 60.8906 37.4414 61.5156 33.8867H62.8828L62.2188 45H38.1562V43.5352H40.5195C41.3268 43.5352 41.8932 43.3854 42.2188 43.0859C42.5443 42.7734 42.707 42.2786 42.707 41.6016V19.043C42.707 18.5612 42.5703 18.1966 42.2969 17.9492C42.0234 17.7018 41.6198 17.5781 41.0859 17.5781H38.1562V16.1133ZM63.1562 16.1133H86.5938L87.1602 27.0312H85.8125C84.9271 20.612 82.6094 17.4023 78.8594 17.4023C78.1042 17.4023 77.5833 17.5326 77.2969 17.793C77.0234 18.0534 76.8867 18.4831 76.8867 19.082V42.168C76.8867 42.6367 77.0234 42.9818 77.2969 43.2031C77.5703 43.4245 78.0195 43.5352 78.6445 43.5352H81.5547V45H68.1367V43.5352H71.457C71.8997 43.5352 72.2383 43.4245 72.4727 43.2031C72.707 42.9818 72.8242 42.6888 72.8242 42.3242V18.9062C72.8242 18.4115 72.6745 18.0404 72.375 17.793C72.0755 17.5326 71.5938 17.4023 70.9297 17.4023C69.0417 17.4023 67.4661 18.2943 66.2031 20.0781C65.1615 21.5495 64.4128 23.8672 63.957 27.0312H62.5312L63.1562 16.1133ZM99.8555 15.5078H101.164L111.535 41.9336C111.952 43.0013 112.805 43.5352 114.094 43.5352H114.992V45H103.469V43.5352H104.387C105.585 43.5352 106.431 43.4049 106.926 43.1445C107.264 42.9622 107.434 42.6823 107.434 42.3047C107.434 42.0833 107.388 41.849 107.297 41.6016L104.895 35.4688H93.4883L92.1406 38.9844C91.7891 39.9219 91.6133 40.6641 91.6133 41.2109C91.6133 41.849 91.9062 42.3958 92.4922 42.8516C93.0911 43.3073 93.957 43.5352 95.0898 43.5352H96.0664V45H85.5977V43.5352C86.7174 43.5352 87.6029 43.2943 88.2539 42.8125C88.9049 42.3177 89.5039 41.3867 90.0508 40.0195L99.8555 15.5078ZM99.2891 21.0742L94.1133 33.9453H104.328L99.2891 21.0742ZM116.281 16.1133H129.602V17.5781H127.316C126.301 17.5781 125.656 17.7083 125.383 17.9688C125.122 18.2161 124.992 18.75 124.992 19.5703V41.4453C124.992 42.3177 125.109 42.8646 125.344 43.0859C125.656 43.3854 126.223 43.5352 127.043 43.5352H129.602V45H116.281V43.5352H118.801C119.686 43.5352 120.259 43.4049 120.52 43.1445C120.78 42.8841 120.91 42.3177 120.91 41.4453V19.5703C120.91 18.737 120.793 18.2227 120.559 18.0273C120.194 17.7279 119.523 17.5781 118.547 17.5781H116.281V16.1133ZM132.102 16.1133H147.023C149.914 16.1133 152.154 16.7708 153.742 18.0859C155.344 19.401 156.145 21.1263 156.145 23.2617C156.145 24.5378 155.826 25.6771 155.188 26.6797C154.562 27.6693 153.651 28.4635 152.453 29.0625C151.268 29.6484 149.4 30.0716 146.848 30.332C148.71 30.8398 149.992 31.3411 150.695 31.8359C151.398 32.3177 151.958 32.9492 152.375 33.7305C152.805 34.4987 153.293 36.0742 153.84 38.457C154.23 40.1628 154.647 41.3281 155.09 41.9531C155.428 42.4349 155.793 42.6758 156.184 42.6758C156.587 42.6758 156.958 42.3828 157.297 41.7969C157.648 41.1979 157.863 40.1497 157.941 38.6523H159.27C159.022 43.0794 157.388 45.293 154.367 45.293C153.417 45.293 152.59 45.0521 151.887 44.5703C151.197 44.0885 150.676 43.3789 150.324 42.4414C150.051 41.7383 149.745 39.8958 149.406 36.9141C149.211 35.1823 148.898 33.9518 148.469 33.2227C148.052 32.4935 147.395 31.9076 146.496 31.4648C145.598 31.0221 144.523 30.8008 143.273 30.8008H140.91V42.1484C140.91 42.6302 141.034 42.9688 141.281 43.1641C141.594 43.4115 142.082 43.5352 142.746 43.5352H145.52V45H132.102V43.5352H134.934C135.559 43.5352 136.014 43.4115 136.301 43.1641C136.6 42.9167 136.75 42.5781 136.75 42.1484V19.0625C136.75 18.5677 136.6 18.1966 136.301 17.9492C136.001 17.7018 135.546 17.5781 134.934 17.5781H132.102V16.1133ZM140.91 29.3945H144.328C146.62 29.3945 148.41 28.9648 149.699 28.1055C151.001 27.2331 151.652 25.6901 151.652 23.4766C151.652 21.9531 151.405 20.7487 150.91 19.8633C150.428 18.9779 149.79 18.3724 148.996 18.0469C148.202 17.7214 146.639 17.5586 144.309 17.5586C142.772 17.5586 141.822 17.6693 141.457 17.8906C141.092 18.099 140.91 18.4635 140.91 18.9844V29.3945Z" fill="white"/>
<line x1="8" y1="47.5" x2="160" y2="47.5" stroke="white"/>
<path d="M26.15 61.2422C26.4729 62.1432 26.8427 62.7682 27.2594 63.1172C27.6813 63.4609 28.1995 63.6328 28.8141 63.6328C29.3818 63.6328 29.8167 63.5104 30.1188 63.2656C30.426 63.0156 30.5797 62.7005 30.5797 62.3203C30.5797 62.1016 30.5224 61.9115 30.4078 61.75C30.2984 61.5833 30.1448 61.4609 29.9469 61.3828C29.749 61.2995 29.2359 61.1797 28.4078 61.0234C27.6161 60.8672 27.0641 60.7031 26.7516 60.5312C26.4391 60.3594 26.1943 60.1224 26.0172 59.8203C25.8453 59.5182 25.7594 59.1901 25.7594 58.8359C25.7594 58.2995 25.9391 57.8125 26.2984 57.375C26.762 56.8177 27.4104 56.5391 28.2438 56.5391C28.8792 56.5391 29.4677 56.7396 30.0094 57.1406L30.525 56.5938H30.8453L31.0484 59.2031H30.525C30.2958 58.4635 29.9859 57.9323 29.5953 57.6094C29.2047 57.2812 28.7229 57.1172 28.15 57.1172C27.6552 57.1172 27.2672 57.2396 26.9859 57.4844C26.7047 57.724 26.5641 58.0182 26.5641 58.3672C26.5641 58.6745 26.6943 58.9297 26.9547 59.1328C27.2099 59.3411 27.7099 59.5052 28.4547 59.625C29.3193 59.7708 29.8818 59.8932 30.1422 59.9922C30.5693 60.1484 30.9 60.3906 31.1344 60.7188C31.3688 61.0417 31.4859 61.4375 31.4859 61.9062C31.4859 62.5521 31.2307 63.099 30.7203 63.5469C30.2151 63.9948 29.5719 64.2188 28.7906 64.2188C28.0667 64.2188 27.3948 63.9792 26.775 63.5L26.2047 64.1562H25.7906L25.6344 61.2422H26.15ZM41.5891 56.5469V61.3984C41.5891 61.9922 41.7375 62.4505 42.0344 62.7734C42.3365 63.0964 42.7245 63.2578 43.1984 63.2578C43.7818 63.2578 44.2766 63.0234 44.6828 62.5547C45.0943 62.0807 45.3 61.4896 45.3 60.7812V58.0391C45.3 57.7891 45.2089 57.5964 45.0266 57.4609C44.8495 57.3203 44.5057 57.2422 43.9953 57.2266V56.6797L46.5656 56.5469V62.5547C46.5656 62.8307 46.6438 63.0443 46.8 63.1953C46.9563 63.3411 47.175 63.4141 47.4563 63.4141H47.9172V63.9375L45.4563 64L45.3 62.5547C44.8625 63.0703 44.4224 63.4583 43.9797 63.7188C43.537 63.9792 43.0891 64.1094 42.6359 64.1094C41.9745 64.1094 41.4198 63.888 40.9719 63.4453C40.5188 63.0078 40.2922 62.2656 40.2922 61.2188V58.0391C40.2922 57.7578 40.1802 57.5443 39.9563 57.3984C39.8 57.2943 39.4797 57.237 38.9953 57.2266V56.6797L41.5891 56.5469ZM57.1453 52.3125C57.3797 52.3125 57.5854 52.401 57.7625 52.5781C57.9396 52.7552 58.0281 52.9635 58.0281 53.2031C58.0281 53.4375 57.9422 53.6406 57.7703 53.8125C57.5984 53.9844 57.3927 54.0703 57.1531 54.0703C56.9135 54.0703 56.7052 53.9844 56.5281 53.8125C56.3563 53.6354 56.2703 53.4297 56.2703 53.1953C56.2703 52.9609 56.3589 52.7552 56.5359 52.5781C56.713 52.401 56.9161 52.3125 57.1453 52.3125ZM55.1219 56.6797L58.0281 56.5938V62.8906C58.0281 63.0625 58.0698 63.1849 58.1531 63.2578C58.2729 63.362 58.424 63.4141 58.6063 63.4141H59.4344V64H55.2781V63.4141H56.0516C56.2807 63.4141 56.4474 63.3594 56.5516 63.25C56.6609 63.1354 56.7156 62.9714 56.7156 62.7578V58.1484C56.7156 57.8568 56.6323 57.638 56.4656 57.4922C56.299 57.3411 56.0516 57.2656 55.7234 57.2656H55.1219V56.6797ZM68.6313 53.6953H69.1625V56.6797H71.5297V57.3984H69.1625V62.0938C69.1625 62.5 69.2589 62.8125 69.4516 63.0312C69.6443 63.2448 69.8891 63.3516 70.1859 63.3516C70.5401 63.3516 70.8422 63.1875 71.0922 62.8594C71.3422 62.5312 71.488 61.9896 71.5297 61.2344H72.0531C72.0219 62.2083 71.8005 62.9323 71.3891 63.4062C70.9776 63.875 70.4438 64.1094 69.7875 64.1094C69.1833 64.1094 68.7094 63.9453 68.3656 63.6172C68.0271 63.2839 67.8578 62.849 67.8578 62.3125V57.3984H66.5844V56.8516C67.1625 56.7526 67.6026 56.5104 67.9047 56.125C68.3526 55.5469 68.5948 54.737 68.6313 53.6953ZM91.0719 61.2422C91.3948 62.1432 91.7646 62.7682 92.1813 63.1172C92.6031 63.4609 93.1214 63.6328 93.7359 63.6328C94.3036 63.6328 94.7385 63.5104 95.0406 63.2656C95.3479 63.0156 95.5016 62.7005 95.5016 62.3203C95.5016 62.1016 95.4443 61.9115 95.3297 61.75C95.2203 61.5833 95.0667 61.4609 94.8688 61.3828C94.6708 61.2995 94.1578 61.1797 93.3297 61.0234C92.538 60.8672 91.9859 60.7031 91.6734 60.5312C91.3609 60.3594 91.1161 60.1224 90.9391 59.8203C90.7672 59.5182 90.6813 59.1901 90.6813 58.8359C90.6813 58.2995 90.8609 57.8125 91.2203 57.375C91.6839 56.8177 92.3323 56.5391 93.1656 56.5391C93.801 56.5391 94.3896 56.7396 94.9313 57.1406L95.4469 56.5938H95.7672L95.9703 59.2031H95.4469C95.2177 58.4635 94.9078 57.9323 94.5172 57.6094C94.1266 57.2812 93.6448 57.1172 93.0719 57.1172C92.5771 57.1172 92.1891 57.2396 91.9078 57.4844C91.6266 57.724 91.4859 58.0182 91.4859 58.3672C91.4859 58.6745 91.6161 58.9297 91.8766 59.1328C92.1318 59.3411 92.6318 59.5052 93.3766 59.625C94.2411 59.7708 94.8036 59.8932 95.0641 59.9922C95.4911 60.1484 95.8219 60.3906 96.0563 60.7188C96.2906 61.0417 96.4078 61.4375 96.4078 61.9062C96.4078 62.5521 96.1526 63.099 95.6422 63.5469C95.137 63.9948 94.4938 64.2188 93.7125 64.2188C92.9885 64.2188 92.3167 63.9792 91.6969 63.5L91.1266 64.1562H90.7125L90.5563 61.2422H91.0719ZM103.816 52.4453L106.589 52.3125V57.9531C106.974 57.4531 107.389 57.0807 107.831 56.8359C108.274 56.5859 108.743 56.4609 109.238 56.4609C109.706 56.4609 110.128 56.5729 110.503 56.7969C110.795 56.974 111.042 57.2839 111.245 57.7266C111.454 58.1693 111.558 58.6927 111.558 59.2969V62.7734C111.558 62.9974 111.615 63.1615 111.73 63.2656C111.844 63.3646 112.024 63.4141 112.269 63.4141H112.894V64H108.941V63.4141H109.378C109.711 63.4141 109.941 63.362 110.066 63.2578C110.196 63.1484 110.261 62.987 110.261 62.7734V59.2969C110.261 58.6875 110.113 58.2135 109.816 57.875C109.524 57.5312 109.149 57.3594 108.691 57.3594C108.331 57.3594 107.998 57.4557 107.691 57.6484C107.383 57.8411 107.123 58.1354 106.909 58.5312C106.696 58.9219 106.589 59.3359 106.589 59.7734V62.6953C106.589 62.9557 106.644 63.1406 106.753 63.25C106.863 63.3594 107.042 63.4141 107.292 63.4141H107.917V64H104.05V63.4141H104.488C104.784 63.4141 104.995 63.3568 105.12 63.2422C105.245 63.1224 105.308 62.9401 105.308 62.6953V53.9609C105.308 53.6484 105.224 53.4167 105.058 53.2656C104.896 53.1094 104.659 53.0312 104.347 53.0312H103.816V52.4453ZM123.638 56.4609C124.622 56.4609 125.447 56.8177 126.114 57.5312C126.786 58.2396 127.122 59.1745 127.122 60.3359C127.122 61.138 126.971 61.8229 126.669 62.3906C126.372 62.9531 125.945 63.3984 125.388 63.7266C124.835 64.0547 124.239 64.2188 123.598 64.2188C122.651 64.2188 121.846 63.8594 121.184 63.1406C120.528 62.4219 120.2 61.4896 120.2 60.3438C120.2 59.1927 120.531 58.2578 121.192 57.5391C121.854 56.8203 122.669 56.4609 123.638 56.4609ZM123.638 57.0156C123.054 57.0156 122.575 57.2812 122.2 57.8125C121.825 58.3385 121.638 59.1719 121.638 60.3125C121.638 61.474 121.822 62.3229 122.192 62.8594C122.567 63.3958 123.049 63.6641 123.638 63.6641C124.247 63.6641 124.739 63.3958 125.114 62.8594C125.494 62.3229 125.684 61.4453 125.684 60.2266C125.684 59.0964 125.497 58.2786 125.122 57.7734C124.752 57.2682 124.257 57.0156 123.638 57.0156ZM136.897 56.5469C137.011 57.0938 137.079 57.6198 137.1 58.125C137.459 57.5521 137.837 57.1458 138.233 56.9062C138.629 56.6667 139.061 56.5469 139.53 56.5469C140.03 56.5469 140.506 56.7005 140.959 57.0078C141.418 57.3151 141.787 57.7656 142.069 58.3594C142.355 58.9531 142.498 59.6224 142.498 60.3672C142.498 61.5599 142.149 62.5312 141.452 63.2812C140.873 63.9062 140.181 64.2188 139.373 64.2188C138.915 64.2188 138.501 64.1016 138.131 63.8672C137.761 63.6328 137.433 63.2839 137.147 62.8203V65.7812C137.147 66.0104 137.202 66.1719 137.311 66.2656C137.452 66.3906 137.647 66.4531 137.897 66.4531H138.436V67.0078H134.537V66.4531H135.077C135.327 66.4531 135.514 66.4036 135.639 66.3047C135.764 66.2057 135.827 66.0755 135.827 65.9141V58.2109C135.827 57.8516 135.741 57.599 135.569 57.4531C135.397 57.3021 135.053 57.2188 134.537 57.2031V56.6797L136.897 56.5469ZM139.17 57.2578C138.603 57.2578 138.121 57.5312 137.725 58.0781C137.334 58.625 137.139 59.4167 137.139 60.4531C137.139 61.5 137.329 62.2734 137.709 62.7734C138.09 63.2734 138.574 63.5234 139.162 63.5234C139.715 63.5234 140.139 63.3099 140.436 62.8828C140.816 62.3203 141.006 61.4974 141.006 60.4141C141.006 59.2786 140.834 58.4688 140.491 57.9844C140.147 57.5 139.707 57.2578 139.17 57.2578Z" fill="white"/>
<line x1="8" y1="66.5" x2="160" y2="66.5" stroke="white"/>
</svg>
