<svg width="580" height="206" viewBox="0 0 580 206" fill="none" xmlns="http://www.w3.org/2000/svg">
<path d="M476.5 0C508.256 0 534 33.1309 534 74C534 77.0465 533.856 80.05 533.578 83H580C580 139.885 534.109 186 477.5 186C420.891 186 375 139.885 375 83H419.422C419.144 80.05 419 77.0465 419 74C419 63.8321 420.593 54.1431 423.476 45.3242L401.462 36.7051C398.678 35.6149 399.027 31.5685 401.957 30.9717L433.763 24.4922C444.288 9.45453 459.536 6.80405e-05 476.5 0ZM459.5 22C453.701 22.0001 449 26.7011 449 32.5C449 38.2989 453.701 42.9999 459.5 43C465.299 43 470 38.299 470 32.5C470 26.701 465.299 22 459.5 22Z" fill="#004C52"/>
<path d="M453.796 103C453.966 99.0747 454.158 95.1707 454.372 91.288C454.585 87.4053 454.82 83.608 455.076 79.896C455.332 76.1413 455.609 72.4933 455.908 68.952C456.206 65.368 456.548 61.9333 456.932 58.648H461.412C462.649 60.696 463.95 63.0853 465.316 65.816C466.724 68.504 468.132 71.3413 469.54 74.328C470.948 77.272 472.292 80.1733 473.572 83.032C474.894 85.8907 476.068 88.472 477.092 90.776C478.116 88.472 479.268 85.8907 480.548 83.032C481.87 80.1733 483.236 77.272 484.644 74.328C486.052 71.3413 487.46 68.504 488.868 65.816C490.276 63.0853 491.577 60.696 492.772 58.648H496.996C497.38 61.9333 497.721 65.368 498.02 68.952C498.361 72.4933 498.638 76.1413 498.852 79.896C499.108 83.608 499.342 87.4053 499.556 91.288C499.812 95.1707 500.025 99.0747 500.196 103H495.204C495.033 98.648 494.841 94.3813 494.628 90.2C494.457 85.976 494.244 81.9013 493.988 77.976C493.732 74.0507 493.433 70.3387 493.092 66.84C492.665 67.6507 491.982 68.9947 491.044 70.872C490.148 72.7067 489.124 74.84 487.972 77.272C486.82 79.6613 485.646 82.1147 484.451 84.632C483.3 87.1493 482.233 89.4747 481.252 91.608C480.313 93.7413 479.588 95.4267 479.076 96.664H474.788C474.276 95.4267 473.529 93.7413 472.548 91.608C471.609 89.4747 470.542 87.1493 469.348 84.632C468.196 82.1147 467.044 79.6613 465.892 77.272C464.74 74.84 463.694 72.7067 462.756 70.872C461.86 68.9947 461.198 67.6507 460.772 66.84C460.43 70.3387 460.132 74.0507 459.876 77.976C459.62 81.9013 459.385 85.976 459.172 90.2C459.001 94.3813 458.83 98.648 458.66 103H453.796Z" fill="#F9D89A"/>
<path d="M62.9038 177C63.2238 170.6 63.4638 163.16 63.6238 154.68C63.7838 146.04 63.8638 137.08 63.8638 127.8C63.8638 118.52 63.8638 109.64 63.8638 101.16V90.6C63.8638 82.28 63.8638 73.64 63.8638 64.68C63.8638 55.56 63.7838 46.84 63.6238 38.52C63.4638 30.04 63.2238 22.6 62.9038 16.2H81.8638C81.5438 22.6 81.3038 30.04 81.1438 38.52C80.9838 46.84 80.9038 55.56 80.9038 64.68C80.9038 73.64 80.9038 82.28 80.9038 90.6V101.16C80.9038 109.64 80.9038 118.52 80.9038 127.8C80.9038 137.08 80.9838 146.04 81.1438 154.68C81.3038 163.16 81.5438 170.6 81.8638 177H62.9038ZM43.7038 177V173.16L68.6638 170.28H75.8638L100.824 173.16V177H43.7038ZM43.7038 20.04V16.2H100.824V20.04L75.8638 22.92H68.6638L43.7038 20.04ZM125.544 177V173.16L150.264 170.28H157.464L177.864 173.16V177H125.544ZM123.864 20.04V16.2H176.664V20.04L155.304 22.92H148.824L123.864 20.04ZM70.8238 133.32V119.64H74.9038L77.7838 116.04L153.384 16.2H161.064L70.8238 133.32ZM147.384 177L100.584 88.2L111.624 75.72L166.344 177H147.384ZM189.251 177V173.16L211.331 170.76H214.691L236.531 173.16V177H189.251ZM189.251 20.04V16.2H215.171V22.92H214.211L189.251 20.04ZM209.651 177V18.6H216.131V90.6V177H209.651ZM269.651 177L215.411 28.92H210.851V16.2H229.571L280.451 156.84H275.651L276.611 153.96L327.011 16.2H331.331V27.24H329.891L329.171 28.92L274.931 177H269.651ZM309.971 177V173.16L333.011 170.28H340.211L365.171 173.16V177H309.971ZM327.011 177C327.331 170.6 327.571 163.16 327.731 154.68C327.891 146.04 327.971 137.08 327.971 127.8C328.131 118.52 328.211 109.64 328.211 101.16V16.2H346.211C345.891 22.6 345.651 30.04 345.491 38.52C345.331 46.84 345.251 55.56 345.251 64.68C345.251 73.64 345.251 82.28 345.251 90.6V101.16C345.251 109.64 345.251 118.52 345.251 127.8C345.251 137.08 345.331 146.04 345.491 154.68C345.651 163.16 345.891 170.6 346.211 177H327.011ZM333.011 22.92V16.2H365.171V20.04L340.211 22.92H333.011Z" fill="#004C52"/>
</svg>
