<svg width="317" height="64" viewBox="0 0 317 64" fill="none" xmlns="http://www.w3.org/2000/svg">
<path d="M56.576 54.848C61.9093 54.848 65.6 53.9307 67.648 52.096L68.16 52.544C66.2827 56.5973 63.5947 59.6053 60.096 61.568C57.92 62.7627 54.72 63.36 50.496 63.36C50.0693 63.36 49.3227 63.3387 48.256 63.296C47.232 63.2533 45.5467 62.8907 43.2 62.208C40.896 61.568 38.9547 60.9707 37.376 60.416C35.7973 59.904 33.8133 59.0933 31.424 57.984C28.4373 56.576 25.5787 55.1467 22.848 53.696C20.1173 52.288 18.112 51.264 16.832 50.624C15.5947 49.984 14.2933 49.3653 12.928 48.768C11.5627 48.2133 9.68533 47.6587 7.296 47.104C4.90667 46.592 2.47467 46.336 0 46.336V45.696H0.832C2.368 45.696 3.54133 45.0347 4.352 43.712C4.69333 43.1147 4.88533 42.432 4.928 41.664V6.208C4.88533 4.62933 4.18133 3.456 2.816 2.688C2.21867 2.34667 1.55733 2.176 0.832 2.176H0V1.536H22.976V2.176H22.4C21.1627 2.176 20.1387 2.56 19.328 3.328C18.5173 4.096 18.0907 5.056 18.048 6.208V43.456C18.048 45.4613 18.8587 46.72 20.48 47.232C36.992 52.3093 49.024 54.848 56.576 54.848ZM54.4425 0.639999C59.9465 0.639999 64.6825 1.55733 68.6505 3.392C72.6612 5.22667 75.7332 7.91467 77.8665 11.456C79.9998 14.9547 81.0665 19.1147 81.0665 23.936C81.0665 31.232 78.6985 36.9493 73.9625 41.088C69.2265 45.184 62.7198 47.232 54.4425 47.232C46.1652 47.232 39.6585 45.184 34.9225 41.088C30.2292 36.9493 27.8825 31.232 27.8825 23.936C27.8825 16.64 30.2292 10.944 34.9225 6.848C39.6585 2.70933 46.1652 0.639999 54.4425 0.639999ZM45.2905 38.72C47.5092 42.2613 50.5598 44.032 54.4425 44.032C58.3678 44.032 61.4185 42.2613 63.5945 38.72C65.8132 35.1787 66.9225 30.2507 66.9225 23.936C66.9225 17.6213 65.8132 12.6933 63.5945 9.152C61.4185 5.61067 58.3678 3.84 54.4425 3.84C50.5598 3.84 47.5092 5.61067 45.2905 9.152C43.1145 12.6933 42.0265 17.6213 42.0265 23.936C42.0265 30.2507 43.1145 35.1787 45.2905 38.72ZM129.522 45.696H130.034V46.336H105.778V45.696H106.354C107.293 45.696 107.997 45.4187 108.466 44.864C108.935 44.2667 109.17 43.7333 109.17 43.264C109.17 42.752 109.063 42.2187 108.85 41.664L106.354 35.712H92.658L90.098 41.664C89.8847 42.2187 89.778 42.6667 89.778 43.008C89.778 43.3493 89.842 43.7333 89.97 44.16C90.1407 44.544 90.4607 44.9067 90.93 45.248C91.442 45.5467 91.9753 45.696 92.53 45.696H93.106V46.336H78.834V45.696H79.41C80.3913 45.696 81.3513 45.4187 82.29 44.864C83.2713 44.2667 84.082 43.392 84.722 42.24L99.634 9.536C101.895 4.75733 103.111 1.57867 103.282 0H103.858L124.146 42.176C125.511 44.5227 127.303 45.696 129.522 45.696ZM94.066 32.512H105.01L99.634 19.712L94.066 32.512ZM153.569 1.536C161.59 1.536 167.841 3.52 172.321 7.488C176.843 11.4133 179.105 16.896 179.105 23.936C179.105 30.976 176.843 36.48 172.321 40.448C167.841 44.3733 161.59 46.336 153.569 46.336H129.312V45.696H130.145C131.254 45.696 132.193 45.312 132.961 44.544C133.771 43.7333 134.198 42.7733 134.241 41.664V5.824C134.241 4.8 133.814 3.94667 132.961 3.264C132.15 2.53867 131.211 2.176 130.145 2.176H129.377L129.312 1.536H153.569ZM147.361 4.736V43.136H152.289C156.257 43.136 159.371 41.4507 161.633 38.08C163.894 34.6667 165.024 29.952 165.024 23.936C165.024 17.92 163.894 13.2267 161.633 9.856C159.371 6.44267 156.257 4.736 152.289 4.736H147.361ZM182.77 45.696C183.879 45.696 184.818 45.312 185.586 44.544C186.396 43.7333 186.823 42.7733 186.866 41.664V6.144C186.823 5.03467 186.396 4.096 185.586 3.328C184.818 2.56 183.879 2.176 182.77 2.176H181.938V1.536H204.914V2.176H204.082C202.972 2.176 202.012 2.56 201.202 3.328C200.434 4.096 200.028 5.03467 199.986 6.144V41.664C199.986 42.7733 200.391 43.7333 201.202 44.544C202.012 45.312 202.972 45.696 204.082 45.696H204.914V46.336H181.938V45.696H182.77ZM260.72 2.176C259.653 2.176 258.736 2.56 257.968 3.328C257.2 4.05333 256.794 4.94933 256.752 6.016V39.04C256.752 42.1973 256.965 44.6293 257.392 46.336L257.584 47.232H257.008L226.352 19.968V41.792C226.352 43.328 227.013 44.4587 228.336 45.184C228.933 45.5253 229.573 45.696 230.256 45.696H231.472V46.336H208.048V45.696H209.263C210.33 45.696 211.248 45.3333 212.016 44.608C212.784 43.84 213.168 42.9013 213.168 41.792V8.576C213.168 5.58933 212.954 3.22133 212.528 1.472L212.336 0.576H212.976L243.632 27.84V6.08C243.589 4.97067 243.184 4.05333 242.416 3.328C241.648 2.56 240.73 2.176 239.663 2.176H238.448V1.536H261.872V2.176H260.72ZM289.405 47.232C281.768 47.232 275.688 45.1627 271.165 41.024C266.685 36.8427 264.445 31.1253 264.445 23.872C264.445 16.576 266.706 10.88 271.229 6.784C275.752 2.688 282.024 0.639999 290.045 0.639999C293.501 0.639999 297.064 0.938666 300.733 1.536C304.402 2.09067 307.197 2.77333 309.117 3.584L308.477 15.808H307.901C305.682 7.82933 300.797 3.84 293.245 3.84C283.432 3.84 278.525 10.7093 278.525 24.448C278.525 30.6773 279.528 35.4987 281.533 38.912C283.581 42.3253 286.674 44.032 290.813 44.032C293.074 44.032 295.037 43.4347 296.701 42.24C298.408 41.0027 299.261 39.3173 299.261 37.184L299.325 28.416C299.325 27.4773 299.026 26.7733 298.429 26.304C297.874 25.792 297.085 25.536 296.061 25.536H295.037V24.896H316.541V25.536H315.581C314.514 25.536 313.704 25.792 313.149 26.304C312.594 26.7733 312.338 27.4773 312.381 28.416V38.976C309.992 42.0053 305.661 44.3307 299.389 45.952C296.146 46.8053 292.818 47.232 289.405 47.232Z" fill="#EFC3BD"/>
</svg>
